<?xml version="1.0" encoding="UTF-8" standalone="no"?>
<!DOCTYPE svg PUBLIC "-//W3C//DTD SVG 1.1//EN" "http://www.w3.org/Graphics/SVG/1.1/DTD/svg11.dtd">
<svg width="100%" height="100%" viewBox="0 0 450 750" version="1.1" xmlns="http://www.w3.org/2000/svg" xmlns:xlink="http://www.w3.org/1999/xlink" xml:space="preserve" xmlns:serif="http://www.serif.com/" style="fill-rule:evenodd;clip-rule:evenodd;stroke-linejoin:round;stroke-miterlimit:2;">
    <g transform="matrix(1.27107,0,0,1.7565,-55.3656,-180.158)">
        <path d="M387.358,116.004L387.358,514.849C387.358,519.194 382.483,522.722 376.478,522.722L67.991,522.722C61.986,522.722 57.111,519.194 57.111,514.849L57.111,116.004C57.111,111.659 61.986,108.131 67.991,108.131L376.478,108.131C382.483,108.131 387.358,111.659 387.358,116.004Z" style="fill:rgb(41,39,45);"/>
    </g>
    <g transform="matrix(1.16496,0,0,1.16496,-29.7553,-114.996)">
        <text x="93.468px" y="149.64px" style="font-family:'SFPro-Regular', 'SF Pro';font-size:30px;fill:rgb(227,227,227);">ЗђХ║<tspan x="148.854px 201.207px 252.535px 313.077px " y="149.64px 149.64px 149.64px 149.64px ">Зђј╣Зђ»ЏЗђ║ЉЗђѓћ</tspan></text>
        <text x="73.788px" y="203.64px" style="font-family:'SFPro-Regular', 'SF Pro';font-size:30px;fill:rgb(227,227,227);">ЗђЁЂ<tspan x="127.767px 181.747px 206.386px 264.598px 313.964px " y="203.64px 203.64px 203.64px 203.64px 203.64px ">ЗђЁѓ ЗђіџЗЂЪйЗѓљд</tspan></text>
        <text x="94.911px" y="257.64px" style="font-family:'SFPro-Regular', 'SF Pro';font-size:30px;fill:rgb(227,227,227);">ЗђиЙ<tspan x="151.425px 213.637px 265.404px 306.054px " y="257.64px 257.64px 257.64px 257.64px ">ЗђцњЗЂЮЂЗђњІЗђюб</tspan></text>
        <text x="95.739px" y="311.64px" style="font-family:'SFPro-Regular', 'SF Pro';font-size:30px;fill:rgb(227,227,227);">ЗЂ╗«<tspan x="149.308px 204.049px 255.377px 308.258px " y="311.64px 311.64px 311.64px 311.64px ">ЗђБиЗђбЄЗђбЁЗђїє</tspan></text>
        <text x="90.758px" y="365.64px" style="font-family:'SFPro-Regular', 'SF Pro';font-size:30px;fill:rgb(227,227,227);">ЗђЊЕ<tspan x="142.394px 201.046px 257.985px 309.65px " y="365.64px 365.64px 365.64px 365.64px ">ЗђјъЗђѕЮЗђЅ╗ЗЂЪ▒</tspan></text>
        <text x="97.094px" y="419.64px" style="font-family:'SFPro-Regular', 'SF Pro';font-size:30px;fill:rgb(227,227,227);">Зђја<tspan x="141.522px 189.833px 252.045px 304.164px " y="419.64px 419.64px 419.64px 419.64px ">ЗђбЇЗђІ»ЗђгЉЗђДљ</tspan></text>
        <text x="91.395px" y="473.64px" style="font-family:'SFPro-Regular', 'SF Pro';font-size:30px;fill:rgb(227,227,227);">Зђіг<tspan x="142.958px 194.52px 249.247px 307.518px " y="473.64px 473.64px 473.64px 473.64px ">ЗђіГЗђецЗђбЊЗђїЈ</tspan></text>
        <text x="105.678px" y="527.64px" style="font-family:'SFPro-Regular', 'SF Pro';font-size:30px;fill:rgb(227,227,227);">ЗђЎЄ<tspan x="161.312px 216.962px 293.295px " y="527.64px 527.64px 527.64px ">ЗђЎѕЗЂЙ░ЗђЈЁ</tspan></text>
        <text x="94.252px" y="581.64px" style="font-family:'SFPro-Regular', 'SF Pro';font-size:30px;fill:rgb(227,227,227);">ЗђЈ»<tspan x="148.612px 202.972px 252.191px 316.659px " y="581.64px 581.64px 581.64px 581.64px ">ЗЃѕЉЗђЎ«ЗђгЕЗѓцђ</tspan></text>
        <text x="95.226px" y="635.64px" style="font-family:'SFPro-Regular', 'SF Pro';font-size:30px;fill:rgb(227,227,227);">ЗђѕЉ<tspan x="144.269px 201.207px 258.146px 315.978px " y="635.64px 635.64px 635.64px 635.64px ">ЗђѕќЗђБјЗђіДЗђіБ</tspan></text>
        <g transform="matrix(30,0,0,30,329.323,689.64)">
        </g>
        <text x="112.863px" y="689.64px" style="font-family:'SFPro-Regular', 'SF Pro';font-size:30px;fill:rgb(227,227,227);">ЗђцІ<tspan x="171.339px 229.552px 287.765px " y="689.64px 689.64px 689.64px ">ЗђѕеЗђѕдЗЃє«</tspan></text>
    </g>
</svg>
